# xmcd CD database file
#
# Track frame offsets:
#	150
#	19535
#	42002
#	64012
#	87552
#
# Disc length: 1415 seconds
#
# Revision: 0
# Processed by: cddbd v1.5.1PL0 Copyright (c) Steve Scherf et al.
# Submitted via: CDex 1.51
#
DISCID=34058505
DTITLE=Various Artist - だって女の子だもん！ トラブルチョコレート4thアルバム
DYEAR=2000
DGENRE=Anime
TTITLE0=氷上恭子/Cupid
TTITLE1=大谷育江/消えずにいて・・・
TTITLE2=笹本優子＆綱掛裕美/naked fortune
TTITLE3=堀江由衣/恋のetude
TTITLE4=はりMON!/ナイス Me
EXTD=YEAR: 2000
EXTT0=
EXTT1=
EXTT2=
EXTT3=
EXTT4=
PLAYORDER=
